<?xml version="1.0" encoding="UTF-8"?>
<svg version="1.1" viewBox="0 0 1931 2048" width="1280" height="1280" xmlns="http://www.w3.org/2000/svg">
<path transform="translate(950,172)" d="m0 0h11l36 4 25 5 26 8 15 6 17 8 21 13 17 12 13 11 10 9 17 17 9 11 10 13 10 15 11 19 8 16 8 19 9 27 6 26 4 27 2 24v32l-3 29-5 27-7 28-12 36-12 29-14 29-13 25-9 15-14 23-13 19-14 20-13 18-11 15-10 13-11 14-13 16-12 14-9 11-13 14-7 8-12 13-15 16-45 45-8 7-10 10h-2l-24-48-12-22-16-28-17-28-13-20v-3l8-7 20-20 7-8 8-8 7-8 12-13 7-8 9-10 9-11 12-14 13-17 14-18 13-19 14-21 13-22 14-25 11-21 11-25 11-29 7-24 4-19 1-9v-21l-3-22-5-19-7-16-7-13-9-12-15-15-13-9-17-9-15-5-19-3-16 1-18 4-14 6-16 10-11 9-9 9-11 15-8 14-6 14-5 19-2 12-1 12v16l3 21 6 25 9 26 12 28 9 19 12 22 9 16 13 21 1 5-14 18-13 16-9 11-11 13-9 10-7 8-14 15-12 13-20 20-3 1-12-16-15-22-10-15-17-28-9-16-14-26-13-28-12-31-9-28-8-32-5-32-2-22v-44l4-31 7-31 9-27 9-21 12-23 12-19 8-11 8-10 18-21h2v-2l8-7 12-11 13-10 18-12 24-13 23-10 19-6 27-6 26-4z" fill="#1C3D63"/>
<path transform="translate(940,1114)" d="m0 0h6l-3 23-5 34-4 33-4 41-2 30-1 7-4 2-46 7-33 6-43 10-43 12-35 11-27 10-32 14-24 11-26 14-18 11-15 10-19 14-14 12-10 10-11 15-9 15-7 15-6 20-3 19v20l3 19 5 16 6 14 7 11 8 10 9 9 10 7 16 8 16 5 16 2h18l19-3 21-7 17-9 11-8 10-9 10-10 10-13 10-17 8-17 11-33 7-29 6-33 4-31 3-37 21-7 34-9 45-10 38-7 24-4h3v43l-2 40-4 40-5 33-7 33-7 25-11 33-12 28-8 16-11 20-13 19-10 13-11 13-9 10-20 20-14 11-15 11-20 12-12 7-27 12-31 10-24 5-22 3-12 1h-37l-33-5-25-6-20-7-20-9-15-8-19-12-12-9-11-9-24-24-11-14-10-14-11-18-8-16-8-18-8-24-6-25-4-29-1-17v-24l2-24 4-24 7-28 9-26 11-24 12-22 15-22 11-14 11-13 14-15 15-15 8-7 12-10 19-14 18-12 15-9 22-13 19-10 33-15 30-12 29-11 43-14 50-14 46-12 50-10 48-8 40-5z" fill="#1C3D63"/>
<path transform="translate(1488,588)" d="m0 0h41l29 3 25 5 26 8 20 8 20 10 22 13 17 12 13 11 8 7 7 6 7 8 7 7 11 14 13 18 14 25 10 23 8 25 5 23 3 25v42l-3 24-6 27-10 30-8 18-12 23-10 15-10 14-9 11-11 12-20 20-11 9-16 12-17 11-23 13-23 10-27 9-38 9-28 4-27 2h-51l-36-4-30-5-45-10-49-14-36-12-42-15-39-16-30-13-20-9-35-17-23-12-42-24v-3l12-12 2-3h2l2-4 20-20 7-8 10-10 7-8 12-14 10-11 27-33 5 1 35 18 27 13 36 16 26 11 30 11 36 12 27 8 44 10 33 5 38 4h41l24-3 19-5 21-9 15-9 13-10 5-4 7-8 9-12 9-16 6-15 4-15 2-19-1-19-4-16-8-16-7-11-11-12-10-9-18-11-13-6-21-6-20-2-21 1-17 3-17 5-18 8-14 8-12 8-12 9-10 8-10 9-8 7-10 9-20 20-7 8-9 9-9 11-12 15-5-1-37-14-24-10-29-13-29-14-16-8-15-8 6-9 13-18 10-13 11-14 9-11 12-14 9-10 2-3h2l2-4 12-12 2-3h2l1-3h2v-2l8-7 8-8 8-7 13-11 17-13 20-14 15-10 20-11 28-13 15-6 18-6 32-8 25-4z" fill="#1C3D63"/>
<path transform="translate(1016,1080)" d="m0 0 5 1 39 20 29 14 36 16 43 18 1 5-8 51-5 44-3 37-1 16-1 46 1 35 3 40 5 37 7 36 8 29 10 28 10 20 12 17 12 13 9 9 13 9 16 9 18 7 15 3 9 1h19l15-2 21-7 15-8 13-12 12-15 10-19 6-18 3-18v-24l-3-18-5-17-12-25-9-13-12-13v-2l-4-2-8-8-14-11-17-12-19-12-29-16-26-13-40-17-1-7 2-45 3-35 6-48 5-33 5-1 38 13 34 13 25 11 25 12 29 15 24 15 19 13 12 9 13 11 8 7 10 9 25 25 9 11 10 12 14 21 11 19 8 16 7 16 7 20 7 25 5 30 2 25v28l-2 22-4 24-6 23-6 18-9 21-8 16-10 17-12 17-8 10-18 20-13 12-16 12-19 12-16 9-26 11-19 6-26 6-20 3-9 1h-37l-28-3-29-6-26-8-23-10-16-8-22-13-18-13-14-12-10-9-13-13-8-10-13-16-13-18-13-21-9-17-12-27-10-28-8-26-7-30-5-27-4-30-3-32-2-42v-61l3-63 6-63 9-62 10-54z" fill="#1C3D63"/>
<path transform="translate(380,589)" d="m0 0h48l26 3 31 7 21 6 24 9 27 13 22 13 12 8 17 12 13 10 11 9 13 11 15 14 24 24 7 8 24 28 11 14 10 13 14 19 13 18 14 20 19 29 13 21 12 20 12 21 13 24 12 22 10 21 8 16 15 32-1 4-58 10-54 11-48 12-4-1-19-38-12-22-14-25-16-27-15-24-8-12-10-14-14-19-11-14-13-16-12-14-7-8-14-15-20-20-8-7-10-9-17-13-14-10-18-11-21-10-17-5-19-3-18-1-21 2-15 4-13 5-15 8-11 8-10 9-7 7-9 13-7 14-4 14-2 14v14l3 19 5 17 8 17 9 13 8 10 10 10 15 11 18 10 21 8 20 4 16 2h40l31-3 33-5 40-8 16-4 5 1 10 16 13 20 15 25 15 26 7 12 18 36 5 8v2l-14 5-46 14-36 9-45 8-28 4-27 2h-42l-35-3-24-4-32-8-27-9-20-9-26-14-17-11-14-11-11-9-16-15-11-11-9-11-14-18-15-25-10-19-10-25-7-23-5-23-3-24v-51l4-27 6-23 9-25 10-21 12-20 13-18 13-15 22-22 17-13 17-12 19-11 15-8 25-10 15-5 28-7 24-4z" fill="#1C3D63"/>
</svg>
